# File created by Blade
# Date/Time:  Thu Jan 22 16:31:19 2015
#---------------------------------------------------------
:version 1.10
:name HOM
:units
  mass 1.0
  length 1.000000
  angle deg
:documentation
     Acclaim Skeleton File
:root
   axis xyz
   order TX TY TZ RX RY RZ
   position 0.000000 0.000000 0.000000
   orientation 0 0 0
:bonedata
   begin
      id 1
      name RightUpLeg_dum
      direction -1.000000 0.000000 0.000000
      length 3.766986
      axis 0.0 0.0 0.0 xyz
   end
   begin
      id 2
      name LeftUpLeg_dum
      direction 1.000000 0.000000 0.000000
      length 3.766986
      axis 0.0 0.0 0.0 xyz
   end
   begin
      id 3
      name Spine_dum
      direction 0.000000 1.000000 0.000000
      length 7.779697
      axis 0.0 0.0 0.0 xyz
   end
   begin
      id 4
      name RightUpLeg
      direction 0.000000 -1.000000 0.000000
      length 18.017682
      axis 0.0 0.0 0.0 xyz
      dof rx ry rz
   end
   begin
      id 5
      name RightLeg
      direction 0.000000 -1.000000 0.000000
      length 16.881075
      axis 0.0 0.0 0.0 xyz
      dof rx ry rz
   end
   begin
      id 6
      name RightFoot
      direction 0.000000 -0.258819 0.965926
      length 5.770812
      axis 15.0 0.0 0.0 xyz
      dof rx ry rz
   end
   begin
      id 7
      name RightToeBase
      direction 0.000000 0.000000 1.000000
      length 2.952750
      axis 0.0 0.0 0.0 xyz
      dof rx ry rz
   end
   begin
      id 8
      name LeftUpLeg
      direction 0.000000 -1.000000 0.000000
      length 18.017682
      axis 0.0 0.0 0.0 xyz
      dof rx ry rz
   end
   begin
      id 9
      name LeftLeg
      direction 0.000000 -1.000000 0.000000
      length 16.881075
      axis 0.0 0.0 0.0 xyz
      dof rx ry rz
   end
   begin
      id 10
      name LeftFoot
      direction 0.000000 -0.258819 0.965926
      length 5.770812
      axis 15.0 0.0 0.0 xyz
      dof rx ry rz
   end
   begin
      id 11
      name LeftToeBase
      direction 0.000000 0.000000 1.000000
      length 2.952750
      axis 0.0 0.0 0.0 xyz
      dof rx ry rz
   end
   begin
      id 12
      name Spine
      direction 0.000000 1.000000 0.000000
      length 0.000000
      axis 0.0 0.0 0.0 xyz
      dof rx ry rz
   end
   begin
      id 13
      name Spine_dum1
      direction 0.000000 1.000000 0.000000
      length 10.941760
      axis 0.0 0.0 0.0 xyz
   end
   begin
      id 14
      name Spine_dum2
      direction 0.000000 1.000000 0.000000
      length 10.941760
      axis 0.0 0.0 0.0 xyz
   end
   begin
      id 15
      name Spine_dum3
      direction 0.000000 1.000000 0.000000
      length 16.646042
      axis 0.0 0.0 0.0 xyz
   end
   begin
      id 16
      name RightShoulder
      direction -1.000000 0.000000 0.000000
      length 7.708937
      axis 0.0 0.0 90.0 xyz
      dof rx ry rz
   end
   begin
      id 17
      name RightArm
      direction -1.000000 0.000000 0.000000
      length 11.521345
      axis 0.0 0.0 90.0 xyz
      dof rx ry rz
   end
   begin
      id 18
      name RightForeArm
      direction -1.000000 0.000000 0.000000
      length 10.175898
      axis 0.0 0.0 90.0 xyz
      dof ry rz rx
   end
   begin
      id 19
      name RightHand
      direction -1.000000 0.000000 0.000000
      length 0.000000
      axis 0.0 0.0 90.0 xyz
      dof rx ry rz
   end
   begin
      id 20
      name RightHand_dum1
      direction -1.000000 0.000000 0.000000
      length 3.937000
      axis 0.0 0.0 90.0 xyz
   end
   begin
      id 21
      name RightHand_dum2
      direction 0.000000 0.000000 0.000000
      length 0.000000
      axis 0.0 0.0 90.0 xyz
   end
   begin
      id 22
      name RightHandThumb1
      direction 0.000000 0.000000 1.000000
      length 3.937000
      axis 0.0 0.0 90.0 xyz
      dof rx rz ry
   end
   begin
      id 23
      name LeftShoulder
      direction 1.000000 0.000000 0.000000
      length 7.708937
      axis 0.0 0.0 -90.0 xyz
      dof rx ry rz
   end
   begin
      id 24
      name LeftArm
      direction 1.000000 0.000000 0.000000
      length 11.521345
      axis 0.0 0.0 -90.0 xyz
      dof rx ry rz
   end
   begin
      id 25
      name LeftForeArm
      direction 1.000000 0.000000 0.000000
      length 10.175898
      axis 0.0 0.0 -90.0 xyz
      dof ry rz rx
   end
   begin
      id 26
      name LeftHand
      direction 1.000000 0.000000 0.000000
      length 0.000000
      axis 0.0 0.0 -90.0 xyz
      dof rx ry rz
   end
   begin
      id 27
      name LeftHand_dum1
      direction 1.000000 0.000000 0.000000
      length 3.937000
      axis 0.0 0.0 -90.0 xyz
   end
   begin
      id 28
      name LeftHand_dum2
      direction 0.000000 0.000000 0.000000
      length 0.000000
      axis 0.0 0.0 -90.0 xyz
   end
   begin
      id 29
      name LeftHandThumb1
      direction 0.000000 0.000000 1.000000
      length 3.937000
      axis 0.0 0.0 -90.0 xyz
      dof rx rz ry
   end
   begin
      id 30
      name Head
      direction 0.000000 1.000000 0.000000
      length 4.527550
      axis 0.0 0.0 0.0 xyz
      dof rx ry rz
   end
:hierarchy
   begin
      root RightUpLeg_dum LeftUpLeg_dum Spine_dum
      RightUpLeg_dum RightUpLeg
      LeftUpLeg_dum LeftUpLeg
      Spine_dum Spine
      RightUpLeg RightLeg
      RightLeg RightFoot
      RightFoot RightToeBase
      LeftUpLeg LeftLeg
      LeftLeg LeftFoot
      LeftFoot LeftToeBase
      Spine Spine_dum1 Spine_dum2 Spine_dum3
      Spine_dum1 RightShoulder
      Spine_dum2 LeftShoulder
      Spine_dum3 Head
      RightShoulder RightArm
      RightArm RightForeArm
      RightForeArm RightHand
      RightHand RightHand_dum1 RightHand_dum2
      RightHand_dum2 RightHandThumb1
      LeftShoulder LeftArm
      LeftArm LeftForeArm
      LeftForeArm LeftHand
      LeftHand LeftHand_dum1 LeftHand_dum2
      LeftHand_dum2 LeftHandThumb1
   end

# File created by Blade
# Date/Time:  Thu Jan 22 16:31:11 2015
# Frame Rate: 120.000 fps
#------------------------------------------------------
:FULLY-SPECIFIED
:DEGREES
240
root 19.301005 28.852058 1.627274 15.887458 22.269074 -5.195938
RightUpLeg 6.728882 -16.690287 -30.344541
RightLeg -8.371946 -0.000000 0.000000
RightFoot -9.390459 -13.281366 47.524391
RightToeBase 11.245499 -0.000000 -0.000000
LeftUpLeg -71.500034 35.782826 4.025334
LeftLeg 76.660954 -0.000000 -0.000000
LeftFoot -16.870981 -2.369201 -19.559597
LeftToeBase -1.728776 -0.000000 0.000000
Spine 24.658309 -13.487071 -22.738125
RightShoulder -5.887634 -14.316903 -22.784668
RightArm -0.908638 36.460169 45.335987
RightForeArm 26.313836 -0.000000 22.352973
RightHand 10.265321 -0.000000 -20.899682
RightHandThumb1 -24.326973 -0.000000 -32.862282
LeftShoulder -18.780540 32.667012 11.479750
LeftArm 47.747125 -38.705441 -65.106002
LeftForeArm 30.761077 -0.000000 12.611618
LeftHand -18.383171 -0.000000 9.212600
LeftHandThumb1 -26.253704 0.000000 33.147579
Head -8.085028 24.735639 -5.503673
241
root 19.347710 28.773665 1.579592 15.939816 22.313541 -5.442958
RightUpLeg 6.563629 -16.661211 -30.288570
RightLeg -8.278390 -0.000000 0.000000
RightFoot -9.330518 -13.026658 47.730803
RightToeBase 11.248658 -0.000000 -0.000000
LeftUpLeg -71.878297 35.746239 4.014399
LeftLeg 76.860929 -0.000000 -0.000000
LeftFoot -17.692453 -2.407340 -19.572356
LeftToeBase -0.993311 -0.000000 0.000000
Spine 24.930105 -13.442116 -22.940464
RightShoulder -5.846194 -14.246126 -22.912193
RightArm -0.815294 36.436884 45.362354
RightForeArm 26.382034 0.000000 22.235629
RightHand 10.230127 -0.000000 -21.066828
RightHandThumb1 -24.326973 -0.000000 -32.862282
LeftShoulder -18.755353 32.612461 11.275954
LeftArm 48.009251 -38.650713 -65.254476
LeftForeArm 30.552015 -0.000000 12.560971
LeftHand -18.209693 -0.000000 9.591683
LeftHandThumb1 -26.253704 0.000000 33.147579
Head -8.371361 25.579265 -5.747290
242
root 19.390143 28.695066 1.529433 15.991175 22.370477 -5.711184
RightUpLeg 6.354731 -16.704754 -30.202587
RightLeg -8.122964 -0.000000 0.000000
RightFoot -9.254912 -12.766835 47.832127
RightToeBase 11.344902 -0.000000 -0.000000
LeftUpLeg -72.233453 35.696015 3.999236
LeftLeg 76.979796 -0.000000 -0.000000
LeftFoot -18.657704 -2.397099 -19.552139
LeftToeBase -0.232460 -0.000000 0.000000
Spine 25.191695 -13.384903 -23.130516
RightShoulder -5.787075 -14.152122 -23.018194
RightArm -0.786330 36.374640 45.330040
RightForeArm 26.484346 -0.000000 22.103283
RightHand 10.253748 -0.000000 -21.086973
RightHandThumb1 -24.326973 -0.000000 -32.862282
LeftShoulder -18.611020 32.521086 11.190801
LeftArm 47.956678 -38.511229 -65.263212
LeftForeArm 30.254252 0.000000 12.741495
LeftHand -18.296001 -0.000000 10.080445
LeftHandThumb1 -26.253704 0.000000 33.147579
Head -8.687332 26.262884 -6.059647
243
root 19.432447 28.615041 1.480467 16.035566 22.460333 -5.972936
RightUpLeg 6.168434 -16.795160 -30.123494
RightLeg -7.954995 -0.000000 0.000000
RightFoot -9.185147 -12.394958 47.869634
RightToeBase 11.438569 -0.000000 -0.000000
LeftUpLeg -72.554728 35.611344 3.962090
LeftLeg 77.067415 -0.000000 -0.000000
LeftFoot -19.729241 -2.312343 -19.445651
LeftToeBase 0.501408 -0.000000 -0.000000
Spine 25.460105 -13.340527 -23.327509
RightShoulder -5.739730 -14.047077 -23.151688
RightArm -0.739212 36.282943 45.352604
RightForeArm 26.646359 -0.000000 21.926910
RightHand 10.465107 -0.000000 -21.173142
RightHandThumb1 -24.326973 -0.000000 -32.862282
LeftShoulder -18.426747 32.470342 11.148715
LeftArm 47.933803 -38.443318 -65.352265
LeftForeArm 29.659480 -0.000000 12.961891
LeftHand -18.070020 0.000000 9.718433
LeftHandThumb1 -26.253704 0.000000 33.147579
Head -8.957762 26.870646 -6.366682
